<svg width="275" height="109" viewBox="0 0 275 109" fill="none" xmlns="http://www.w3.org/2000/svg">
<path d="M32.8189 66.1007C32.8189 71.9917 37.5946 76.7674 43.4856 76.7674C49.3766 76.7674 54.1523 71.9917 54.1523 66.1007C54.1523 60.2097 49.3766 55.434 43.4856 55.434C37.5946 55.434 32.8189 60.2097 32.8189 66.1007ZM274.841 66.1007L254.841 54.5537V77.6477L274.841 66.1007ZM43.4856 68.1007H256.841V64.1007H43.4856V68.1007Z" fill="#2B3747"/>
<path d="M116.732 93.8751L93.6527 87.4447L106.473 54.8935L133.067 77.0714L116.732 93.8751Z" fill="white"/>
<path d="M116.732 93.8751L93.6527 87.4447L106.473 54.8935M116.732 93.8751L133.067 77.0714L106.473 54.8935M116.732 93.8751L106.473 54.8935" stroke="#2B3747"/>
<path d="M119.367 47.0242L124.499 28.9451L138.13 40.2107L132.388 60.4368L119.367 47.0242ZM133.35 60.7099L139.092 40.4838L156.608 38.0606L151.476 56.1397L133.35 60.7099ZM125.307 28.3153L143.316 23.7747L156.252 37.1003L138.849 39.5078L125.307 28.3153Z" fill="white" stroke="#2B3747"/>
<path d="M176.341 43.4741L186.853 23.7689L208.097 30.6599L211.831 39.9134L201.349 59.6936L180.075 52.7276L176.341 43.4741Z" fill="white"/>
<path d="M186.853 23.7689L176.341 43.4741L180.075 52.7276M186.853 23.7689L208.097 30.6599L211.831 39.9134M186.853 23.7689L180.075 52.7276M186.853 23.7689L211.831 39.9134M180.075 52.7276L201.349 59.6936L211.831 39.9134M180.075 52.7276L211.831 39.9134" stroke="#2B3747"/>
<path d="M161.395 90.8887L153.13 85.6614L149.124 75.5902L150.27 71.0986L158.303 77.6594L161.395 90.8887ZM158.856 76.8196L150.543 70.0301L151.803 65.0881L159.945 58.3311L168.389 65.5254L166.112 74.4491L158.856 76.8196ZM169.088 64.8074L161.213 58.0974L170.96 57.4688L179.215 62.6895L169.088 64.8074ZM169.357 65.7726L180.215 63.5018L184.126 73.3332L182.86 78.2937L173.561 80.5728L167.087 74.6718L169.357 65.7726ZM173.671 81.5754L182.58 79.3919L181.447 83.8354L173.106 90.7571L163.491 91.3772L173.671 81.5754ZM172.69 81.1318L162.447 90.9939L159.343 77.7126L166.407 75.4048L172.69 81.1318Z" fill="white" stroke="#2B3747"/>
<path d="M242.999 71.5162L235.468 90.7453L230.892 71.4315L242.999 71.5162ZM229.722 70.1797L216.85 65.1382L228.943 54.1487L229.722 70.1797ZM199.332 77.7729L215.46 66.2515L216.286 84.4133L199.332 77.7729ZM217.693 84.9642L229.986 71.9443L234.643 91.6033L217.693 84.9642ZM216.452 66.0563L229.387 71.1224L217.266 83.959L216.452 66.0563ZM216.173 85.4428L212.481 94.8687L199.846 79.0482L216.173 85.4428ZM213.412 95.2334L217.104 85.8075L233.43 92.2021L213.412 95.2334ZM227.831 53.8079L215.926 64.6272L207.755 56.848L227.831 53.8079ZM206.866 57.3817L215.135 65.2549L199.371 76.5163L206.866 57.3817ZM230.735 70.4303L229.965 54.5866L242.685 70.514L230.735 70.4303Z" fill="white" stroke="#2B3747"/>
<path d="M43.4857 27.9776L48.6261 60.6995L81.348 65.8399L48.6261 70.9802L43.4857 103.702L38.3454 70.9802L5.62341 65.8399L38.3454 60.6995L43.4857 27.9776Z" fill="#A2A2A2"/>
<path d="M63.0425 46.2829L48.7958 65.8399L63.0425 85.3968L43.4856 71.1502L23.9286 85.3968L38.1753 65.8399L23.9286 46.2829L43.4856 60.5296L63.0425 46.2829Z" fill="#A2A2A2"/>
<path fill-rule="evenodd" clip-rule="evenodd" d="M43.4856 84.6761C53.8886 84.6761 62.3219 76.2429 62.3219 65.8399C62.3219 55.4369 53.8886 47.0036 43.4856 47.0036C33.0827 47.0036 24.6494 55.4369 24.6494 65.8399C24.6494 76.2429 33.0827 84.6761 43.4856 84.6761ZM43.4856 87.4526C55.422 87.4526 65.0984 77.7763 65.0984 65.8399C65.0984 53.9035 55.422 44.2271 43.4856 44.2271C31.5493 44.2271 21.8729 53.9035 21.8729 65.8399C21.8729 77.7763 31.5493 87.4526 43.4856 87.4526Z" fill="#A2A2A2"/>
<path fill-rule="evenodd" clip-rule="evenodd" d="M43.4856 28.4072C22.8121 28.4072 6.05296 45.1664 6.05296 65.8399C6.05296 86.5134 22.8121 103.273 43.4856 103.273C64.1591 103.273 80.9182 86.5134 80.9182 65.8399C80.9182 45.1664 64.1591 28.4072 43.4856 28.4072ZM0.5 65.8399C0.5 42.0996 19.7453 22.8543 43.4856 22.8543C67.2259 22.8543 86.4712 42.0996 86.4712 65.8399C86.4712 89.5802 67.2259 108.825 43.4856 108.825C19.7453 108.825 0.5 89.5802 0.5 65.8399Z" fill="#A2A2A2"/>
<path fill-rule="evenodd" clip-rule="evenodd" d="M43.4858 24.6715C49.3659 24.6715 54.1327 19.9047 54.1327 14.0245C54.1327 8.14433 49.3659 3.37752 43.4858 3.37752C37.6056 3.37752 32.8388 8.14433 32.8388 14.0245C32.8388 19.9047 37.6056 24.6715 43.4858 24.6715ZM43.4858 27.448C50.8993 27.448 56.9092 21.4381 56.9092 14.0245C56.9092 6.61093 50.8993 0.60104 43.4858 0.60104C36.0722 0.60104 30.0623 6.61093 30.0623 14.0245C30.0623 21.4381 36.0722 27.448 43.4858 27.448Z" fill="#A2A2A2"/>
<path d="M36.3562 22.5148C36.3562 20.9814 37.5993 19.7383 39.1327 19.7383H47.8384C49.3718 19.7383 50.6149 20.9814 50.6149 22.5148V22.8543C50.6149 24.3877 49.3718 25.6308 47.8384 25.6308H39.1327C37.5993 25.6308 36.3562 24.3877 36.3562 22.8543V22.5148Z" fill="#A2A2A2"/>
<path d="M43.4856 50.9942L45.6615 62.7525L55.2304 65.4262L45.6615 68.0999L43.4856 79.8582L41.3097 68.0999L31.7407 65.4262L41.3097 62.7525L43.4856 50.9942Z" fill="#4F5864"/>
</svg>
