<svg width="230" height="100" viewBox="0 0 230 100" fill="none" xmlns="http://www.w3.org/2000/svg">
<rect width="230" height="100" fill="white"/>
<path d="M35.3703 56.1967C35.3703 62.0878 40.1459 66.8634 46.0369 66.8634C51.928 66.8634 56.7036 62.0878 56.7036 56.1967C56.7036 50.3057 51.928 45.5301 46.0369 45.5301C40.1459 45.5301 35.3703 50.3057 35.3703 56.1967ZM222.642 56.1967L202.642 44.6497V67.7437L222.642 56.1967ZM46.0369 58.1967H204.642V54.1967H46.0369V58.1967Z" fill="#2B3747"/>
<path d="M86.8693 16.6033L89.3642 30.0852L100.336 33.1508L89.3642 36.2165L86.8693 49.6983L84.3745 36.2165L73.4028 33.1508L84.3745 30.0852L86.8693 16.6033Z" fill="#2B3747"/>
<path d="M46.037 27.6102L49.9609 52.5886L74.9393 56.5125L49.9609 60.4364L46.037 85.4148L42.1131 60.4364L17.1347 56.5125L42.1131 52.5886L46.037 27.6102Z" fill="#A2A2A2"/>
<path d="M60.9657 41.5837L50.0905 56.5125L60.9657 71.4414L46.0369 60.5661L31.1081 71.4414L41.9833 56.5125L31.1081 41.5837L46.0369 52.4589L60.9657 41.5837Z" fill="#A2A2A2"/>
<path fill-rule="evenodd" clip-rule="evenodd" d="M46.037 70.8912C53.9781 70.8912 60.4157 64.4537 60.4157 56.5125C60.4157 48.5714 53.9781 42.1338 46.037 42.1338C38.0958 42.1338 31.6583 48.5714 31.6583 56.5125C31.6583 64.4537 38.0958 70.8912 46.037 70.8912ZM46.037 73.0107C55.1486 73.0107 62.5351 65.6242 62.5351 56.5125C62.5351 47.4009 55.1486 40.0144 46.037 40.0144C36.9253 40.0144 29.5388 47.4009 29.5388 56.5125C29.5388 65.6242 36.9253 73.0107 46.037 73.0107Z" fill="#A2A2A2"/>
<path fill-rule="evenodd" clip-rule="evenodd" d="M46.0369 27.9382C30.2558 27.9382 17.4626 40.7314 17.4626 56.5125C17.4626 72.2937 30.2558 85.0868 46.0369 85.0868C61.8181 85.0868 74.6112 72.2937 74.6112 56.5125C74.6112 40.7314 61.8181 27.9382 46.0369 27.9382ZM13.2238 56.5125C13.2238 38.3903 27.9147 23.6994 46.0369 23.6994C64.1591 23.6994 78.8501 38.3903 78.8501 56.5125C78.8501 74.6347 64.1591 89.3257 46.0369 89.3257C27.9147 89.3257 13.2238 74.6347 13.2238 56.5125Z" fill="#A2A2A2"/>
<path fill-rule="evenodd" clip-rule="evenodd" d="M46.0371 25.0865C50.5257 25.0865 54.1645 21.4478 54.1645 16.9591C54.1645 12.4705 50.5257 8.83172 46.0371 8.83172C41.5484 8.83172 37.9097 12.4705 37.9097 16.9591C37.9097 21.4478 41.5484 25.0865 46.0371 25.0865ZM46.0371 27.206C51.6962 27.206 56.2839 22.6183 56.2839 16.9591C56.2839 11.3 51.6962 6.71229 46.0371 6.71229C40.3779 6.71229 35.7902 11.3 35.7902 16.9591C35.7902 22.6183 40.3779 27.206 46.0371 27.206Z" fill="#A2A2A2"/>
<path d="M40.5947 23.4402C40.5947 22.2697 41.5436 21.3208 42.7141 21.3208H49.3597C50.5302 21.3208 51.4791 22.2697 51.4791 23.4402V23.6994C51.4791 24.8699 50.5302 25.8188 49.3597 25.8188H42.7141C41.5436 25.8188 40.5947 24.8699 40.5947 23.6994V23.4402Z" fill="#A2A2A2"/>
<path d="M105.54 16.7543L110.9 38.0844L132.23 43.4442L110.9 48.804L105.54 70.1341L100.18 48.804L78.8501 43.4442L100.18 38.0844L105.54 16.7543Z" fill="#2B3747"/>
<path d="M46.0369 45.18L47.6979 54.1558L55.0024 56.1967L47.6979 58.2377L46.0369 67.2134L44.376 58.2377L37.0715 56.1967L44.376 54.1558L46.0369 45.18Z" fill="#4F5864"/>
<path d="M105.54 26.8967L108.035 40.3786L119.006 43.4442L108.035 46.5098L105.54 59.9917L103.045 46.5098L92.0735 43.4442L103.045 40.3786L105.54 26.8967Z" fill="#99ABC4"/>
<path d="M125.705 69.3171L116.809 64.1158L125.705 51.9794L134.34 64.1158L125.705 69.3171Z" fill="#99ABC4"/>
<path d="M125.705 69.3171L116.809 64.1158L125.705 51.9794M125.705 69.3171L134.34 64.1158L125.705 51.9794M125.705 69.3171V51.9794" stroke="#2B3747"/>
<path d="M137.173 47.66V39.3003L144.326 42.444V51.7898L137.173 47.66ZM145.326 51.7898V42.444L152.479 39.3003V47.66L145.326 51.7898ZM137.778 38.4738L144.826 34.4046L151.874 38.4738L144.826 41.5714L137.778 38.4738Z" fill="#99ABC4" stroke="#2B3747"/>
<path d="M166.788 40.9726L174.513 34.5036L182.237 40.9726V45.474L174.513 51.9794L166.788 45.474V40.9726Z" fill="#99ABC4"/>
<path d="M174.513 34.5036L166.788 40.9726V45.474M174.513 34.5036L182.237 40.9726V45.474M174.513 34.5036L166.788 45.474M174.513 34.5036L182.237 45.474M166.788 45.474L174.513 51.9794L182.237 45.474M166.788 45.474H182.237" stroke="#2B3747"/>
<path d="M160.018 69.6898L155.518 68.2277L152.115 63.5434V61.432L156.876 63.6449L160.018 69.6898ZM157.204 62.6946L152.115 60.3293V57.7532L155.366 53.2776L160.525 55.8072V60.5867L157.204 62.6946ZM161.025 54.9387L156.537 52.7378L161.025 51.2796L165.513 52.7378L161.025 54.9387ZM161.525 55.8072L166.683 53.2776L169.935 57.7532V60.3483L165.534 62.6966L161.525 60.5614V55.8072ZM165.888 63.641L169.935 61.4818V63.5434L166.532 68.2277L162.169 69.6453L165.888 63.641ZM164.828 63.4536L161.063 69.5318L157.896 63.4396L161.047 61.4398L164.828 63.4536Z" fill="#99ABC4" stroke="#2B3747"/>
<path d="M199.008 55.4115V63.0561L194.823 57.0167L199.008 55.4115ZM193.277 56.278H188.172L190.85 50.8699L193.277 56.278ZM183.159 64.1557L187.283 57.8215L190.102 64.1557H183.159ZM191.613 64.1557L194.167 57.8247L198.553 64.1557H191.613ZM188.136 57.278H193.309L190.85 63.3752L188.136 57.278ZM190.372 65.1557V68.7754L184.103 65.1557H190.372ZM191.372 68.7754V65.1557H197.642L191.372 68.7754ZM189.691 50.958L187.124 56.1393L183.37 54.6069L189.691 50.958ZM182.737 55.4283L186.617 57.0122L182.737 62.9715V55.4283ZM194.312 56.1418L191.962 50.9047L198.35 54.5929L194.312 56.1418Z" fill="#99ABC4" stroke="#2B3747"/>
</svg>
