<svg width="223" height="86" viewBox="0 0 223 86" fill="none" xmlns="http://www.w3.org/2000/svg">
<path d="M35.3703 52.1967C35.3703 58.0878 40.1459 62.8634 46.0369 62.8634C51.928 62.8634 56.7036 58.0878 56.7036 52.1967C56.7036 46.3057 51.928 41.5301 46.0369 41.5301C40.1459 41.5301 35.3703 46.3057 35.3703 52.1967ZM222.642 52.1967L202.642 40.6497V63.7437L222.642 52.1967ZM46.0369 54.1967H204.642V50.1967H46.0369V54.1967Z" fill="#2B3747"/>
<path d="M86.8693 12.6033L89.3642 26.0852L100.336 29.1508L89.3642 32.2165L86.8693 45.6983L84.3745 32.2165L73.4028 29.1508L84.3745 26.0852L86.8693 12.6033Z" fill="#2B3747"/>
<path d="M46.037 23.6102L49.9609 48.5886L74.9393 52.5125L49.9609 56.4364L46.037 81.4148L42.1131 56.4364L17.1347 52.5125L42.1131 48.5886L46.037 23.6102Z" fill="#A2A2A2"/>
<path d="M60.9657 37.5837L50.0905 52.5125L60.9657 67.4414L46.0369 56.5661L31.1081 67.4414L41.9833 52.5125L31.1081 37.5837L46.0369 48.4589L60.9657 37.5837Z" fill="#A2A2A2"/>
<path fill-rule="evenodd" clip-rule="evenodd" d="M46.037 66.8912C53.9781 66.8912 60.4157 60.4537 60.4157 52.5125C60.4157 44.5714 53.9781 38.1338 46.037 38.1338C38.0958 38.1338 31.6583 44.5714 31.6583 52.5125C31.6583 60.4537 38.0958 66.8912 46.037 66.8912ZM46.037 69.0107C55.1486 69.0107 62.5351 61.6242 62.5351 52.5125C62.5351 43.4009 55.1486 36.0144 46.037 36.0144C36.9253 36.0144 29.5388 43.4009 29.5388 52.5125C29.5388 61.6242 36.9253 69.0107 46.037 69.0107Z" fill="#A2A2A2"/>
<path fill-rule="evenodd" clip-rule="evenodd" d="M46.0369 23.9382C30.2558 23.9382 17.4626 36.7314 17.4626 52.5125C17.4626 68.2937 30.2558 81.0868 46.0369 81.0868C61.8181 81.0868 74.6112 68.2937 74.6112 52.5125C74.6112 36.7314 61.8181 23.9382 46.0369 23.9382ZM13.2238 52.5125C13.2238 34.3903 27.9147 19.6994 46.0369 19.6994C64.1591 19.6994 78.8501 34.3903 78.8501 52.5125C78.8501 70.6347 64.1591 85.3257 46.0369 85.3257C27.9147 85.3257 13.2238 70.6347 13.2238 52.5125Z" fill="#A2A2A2"/>
<path fill-rule="evenodd" clip-rule="evenodd" d="M46.0371 21.0865C50.5257 21.0865 54.1645 17.4478 54.1645 12.9591C54.1645 8.47049 50.5257 4.83172 46.0371 4.83172C41.5484 4.83172 37.9097 8.47049 37.9097 12.9591C37.9097 17.4478 41.5484 21.0865 46.0371 21.0865ZM46.0371 23.206C51.6962 23.206 56.2839 18.6183 56.2839 12.9591C56.2839 7.29996 51.6962 2.71229 46.0371 2.71229C40.3779 2.71229 35.7902 7.29996 35.7902 12.9591C35.7902 18.6183 40.3779 23.206 46.0371 23.206Z" fill="#A2A2A2"/>
<path d="M40.5947 19.4402C40.5947 18.2697 41.5436 17.3208 42.7141 17.3208H49.3597C50.5302 17.3208 51.4791 18.2697 51.4791 19.4402V19.6994C51.4791 20.8699 50.5302 21.8188 49.3597 21.8188H42.7141C41.5436 21.8188 40.5947 20.8699 40.5947 19.6994V19.4402Z" fill="#A2A2A2"/>
<path d="M105.54 12.7543L110.9 34.0844L132.23 39.4442L110.9 44.804L105.54 66.1341L100.18 44.804L78.8501 39.4442L100.18 34.0844L105.54 12.7543Z" fill="#2B3747"/>
<path d="M46.0369 41.18L47.6979 50.1558L55.0024 52.1967L47.6979 54.2377L46.0369 63.2134L44.376 54.2377L37.0715 52.1967L44.376 50.1558L46.0369 41.18Z" fill="#4F5864"/>
<path d="M105.54 22.8967L108.035 36.3786L119.006 39.4442L108.035 42.5098L105.54 55.9917L103.045 42.5098L92.0735 39.4442L103.045 36.3786L105.54 22.8967Z" fill="#99ABC4"/>
<path d="M125.705 65.3171L116.809 60.1158L125.705 47.9794L134.34 60.1158L125.705 65.3171Z" fill="#99ABC4"/>
<path d="M125.705 65.3171L116.809 60.1158L125.705 47.9794M125.705 65.3171L134.34 60.1158L125.705 47.9794M125.705 65.3171V47.9794" stroke="#2B3747"/>
<path d="M137.173 43.66V35.3003L144.326 38.444V47.7898L137.173 43.66ZM145.326 47.7898V38.444L152.479 35.3003V43.66L145.326 47.7898ZM137.778 34.4738L144.826 30.4046L151.874 34.4738L144.826 37.5714L137.778 34.4738Z" fill="#99ABC4" stroke="#2B3747"/>
<path d="M166.788 36.9726L174.513 30.5036L182.237 36.9726V41.474L174.513 47.9794L166.788 41.474V36.9726Z" fill="#99ABC4"/>
<path d="M174.513 30.5036L166.788 36.9726V41.474M174.513 30.5036L182.237 36.9726V41.474M174.513 30.5036L166.788 41.474M174.513 30.5036L182.237 41.474M166.788 41.474L174.513 47.9794L182.237 41.474M166.788 41.474H182.237" stroke="#2B3747"/>
<path d="M160.018 65.6898L155.518 64.2277L152.115 59.5434V57.432L156.876 59.6449L160.018 65.6898ZM157.204 58.6946L152.115 56.3293V53.7532L155.366 49.2776L160.525 51.8072V56.5867L157.204 58.6946ZM161.025 50.9387L156.537 48.7378L161.025 47.2796L165.513 48.7378L161.025 50.9387ZM161.525 51.8072L166.683 49.2776L169.935 53.7532V56.3483L165.534 58.6966L161.525 56.5614V51.8072ZM165.888 59.641L169.935 57.4818V59.5434L166.532 64.2277L162.169 65.6453L165.888 59.641ZM164.828 59.4536L161.063 65.5318L157.896 59.4396L161.047 57.4398L164.828 59.4536Z" fill="#99ABC4" stroke="#2B3747"/>
<path d="M199.008 51.4115V59.0561L194.823 53.0167L199.008 51.4115ZM193.277 52.278H188.172L190.85 46.8699L193.277 52.278ZM183.159 60.1557L187.283 53.8215L190.102 60.1557H183.159ZM191.613 60.1557L194.167 53.8247L198.553 60.1557H191.613ZM188.136 53.278H193.309L190.85 59.3752L188.136 53.278ZM190.372 61.1557V64.7754L184.103 61.1557H190.372ZM191.372 64.7754V61.1557H197.642L191.372 64.7754ZM189.691 46.958L187.124 52.1393L183.37 50.6069L189.691 46.958ZM182.737 51.4283L186.617 53.0122L182.737 58.9715V51.4283ZM194.312 52.1418L191.962 46.9047L198.35 50.5929L194.312 52.1418Z" fill="#99ABC4" stroke="#2B3747"/>
</svg>
